<?xml version="1.0" standalone="no"?>
<!DOCTYPE svg PUBLIC "-//W3C//DTD SVG 20010904//EN"
 "http://www.w3.org/TR/2001/REC-SVG-20010904/DTD/svg10.dtd">
<svg version="1.0" xmlns="http://www.w3.org/2000/svg"
 width="395.000000pt" height="395.000000pt" viewBox="0 0 395.000000 395.000000"
 preserveAspectRatio="xMidYMid meet">
<metadata>
Created by potrace 1.11, written by Peter Selinger 2001-2013
</metadata>
<g transform="translate(0.000000,395.000000) scale(0.100000,-0.100000)"
fill="#000000" stroke="none">
<path d="M2590 3873 c-163 -34 -335 -192 -419 -383 -46 -105 -50 -116 -61
-165 -7 -28 -14 -59 -16 -70 -13 -55 -19 -130 -18 -230 1 -184 48 -325 151
-451 70 -86 222 -163 313 -158 134 7 289 104 398 249 75 99 106 166 148 320
29 107 32 134 32 250 0 141 -9 208 -40 298 -51 147 -152 263 -278 319 -45 20
-160 32 -210 21z m-50 -1438 c0 -1 -12 -2 -26 -2 -17 0 -22 2 -13 7 10 7 39 3
39 -5z"/>
<path d="M1141 3850 c-91 -31 -177 -103 -234 -196 -66 -110 -97 -235 -97 -397
-1 -155 8 -204 61 -336 16 -40 29 -78 29 -83 0 -6 9 -23 21 -39 11 -16 17 -29
13 -29 -3 0 5 -15 20 -34 14 -19 26 -37 26 -39 0 -23 170 -187 218 -210 12 -5
22 -14 22 -19 0 -4 8 -8 18 -8 10 0 22 -4 28 -9 17 -16 128 -39 172 -35 170
13 308 137 379 339 32 94 37 130 37 270 -2 235 -80 462 -215 623 -143 172
-346 254 -498 202z"/>
<path d="M3475 2734 c-149 -39 -259 -113 -373 -251 -63 -77 -147 -241 -153
-298 -1 -5 -5 -17 -9 -25 -5 -9 -11 -34 -14 -56 -4 -23 -10 -55 -15 -72 -5
-17 -8 -88 -6 -159 l3 -128 43 -79 c102 -187 236 -272 384 -245 27 5 59 10 70
12 111 21 229 103 352 245 51 59 119 204 158 337 23 77 27 109 27 220 0 118
-2 137 -27 205 -69 186 -191 290 -350 296 -38 2 -79 1 -90 -2z"/>
<path d="M360 2657 c-132 -17 -245 -98 -296 -213 -59 -133 -65 -350 -14 -510
91 -287 291 -497 529 -559 116 -30 208 -16 299 47 67 46 151 171 159 238 2 14
7 36 11 50 18 57 1 304 -25 370 -3 8 -7 21 -9 29 -1 7 -21 52 -44 100 -83 174
-231 330 -384 405 -89 44 -142 54 -226 43z"/>
<path d="M1985 2420 c-17 -30 35 -120 59 -102 6 5 21 7 34 6 12 0 22 1 23 5 5
38 4 71 -3 71 -5 0 -6 5 -2 11 4 7 -3 10 -17 9 -13 -1 -26 -1 -29 0 -13 5 -62
5 -65 0z m20 -10 c3 -5 1 -10 -4 -10 -6 0 -11 5 -11 10 0 6 2 10 4 10 3 0 8
-4 11 -10z"/>
<path d="M1986 2325 c4 -8 10 -12 15 -9 11 6 2 24 -11 24 -5 0 -7 -7 -4 -15z"/>
<path d="M1920 1903 c-190 -26 -366 -97 -514 -207 -88 -66 -136 -112 -207
-202 -137 -171 -229 -328 -340 -579 -20 -45 -61 -181 -85 -282 -40 -164 -26
-270 50 -383 16 -25 38 -52 47 -60 10 -8 28 -24 41 -35 45 -39 178 -86 178
-63 0 6 7 5 15 -2 28 -23 243 2 340 40 330 129 535 179 567 139 16 -20 69 -31
88 -18 12 7 9 9 -10 10 -16 1 -19 3 -8 6 9 2 15 10 12 17 -6 16 93 21 139 7
18 -5 68 -19 112 -31 87 -23 258 -85 290 -106 19 -13 92 -41 125 -49 8 -2 38
-10 67 -18 51 -14 201 -16 253 -3 40 9 127 51 155 75 60 49 125 171 111 208
-3 7 -2 15 3 17 10 7 5 116 -9 181 -12 56 -63 202 -90 255 -60 119 -81 157
-154 270 -310 482 -608 746 -911 805 -35 7 -229 13 -265 8z m-783 -1809 c-3
-3 -12 -4 -19 -1 -8 3 -5 6 6 6 11 1 17 -2 13 -5z"/>
</g>
</svg>
